<svg xmlns="http://www.w3.org/2000/svg" viewBox="0 0 100 100" width="100" height="100">
  <defs>
    <linearGradient id="botGrad" x1="0%" y1="0%" x2="100%" y2="100%">
      <stop offset="0%" style="stop-color:#667eea;stop-opacity:1" />
      <stop offset="100%" style="stop-color:#764ba2;stop-opacity:1" />
    </linearGradient>
    <linearGradient id="faceGrad" x1="0%" y1="0%" x2="100%" y2="100%">
      <stop offset="0%" style="stop-color:#f8fafc;stop-opacity:1" />
      <stop offset="100%" style="stop-color:#e2e8f0;stop-opacity:1" />
    </linearGradient>
  </defs>
  
  <!-- Background Circle -->
  <circle cx="50" cy="50" r="45" fill="url(#botGrad)"/>
  
  <!-- Robot Head -->
  <rect x="25" y="30" width="50" height="40" rx="15" fill="url(#faceGrad)" stroke="#cbd5e1" stroke-width="2"/>
  
  <!-- Eyes -->
  <circle cx="38" cy="45" r="4" fill="#3b82f6">
    <animate attributeName="r" values="4;3;4" dur="3s" repeatCount="indefinite"/>
  </circle>
  <circle cx="62" cy="45" r="4" fill="#3b82f6">
    <animate attributeName="r" values="4;3;4" dur="3s" repeatCount="indefinite"/>
  </circle>
  
  <!-- Eye Highlights -->
  <circle cx="39" cy="43" r="1.5" fill="white"/>
  <circle cx="63" cy="43" r="1.5" fill="white"/>
  
  <!-- Mouth -->
  <path d="M42 55 Q50 62 58 55" stroke="#64748b" stroke-width="2" fill="none" stroke-linecap="round"/>
  
  <!-- Medical Cross on Forehead -->
  <g fill="#10b981">
    <rect x="48" y="35" width="4" height="8" rx="1"/>
    <rect x="46" y="37" width="8" height="4" rx="1"/>
  </g>
  
  <!-- Antenna -->
  <line x1="50" y1="30" x2="50" y2="20" stroke="#64748b" stroke-width="2" stroke-linecap="round"/>
  <circle cx="50" cy="18" r="3" fill="#10b981">
    <animate attributeName="fill" values="#10b981;#3b82f6;#10b981" dur="2s" repeatCount="indefinite"/>
  </circle>
  
  <!-- Side Panels -->
  <rect x="20" y="40" width="8" height="15" rx="2" fill="#cbd5e1"/>
  <rect x="72" y="40" width="8" height="15" rx="2" fill="#cbd5e1"/>
  
  <!-- Side Panel Details -->
  <line x1="22" y1="43" x2="26" y2="43" stroke="#64748b" stroke-width="1"/>
  <line x1="22" y1="46" x2="26" y2="46" stroke="#64748b" stroke-width="1"/>
  <line x1="22" y1="49" x2="26" y2="49" stroke="#64748b" stroke-width="1"/>
  
  <line x1="74" y1="43" x2="78" y2="43" stroke="#64748b" stroke-width="1"/>
  <line x1="74" y1="46" x2="78" y2="46" stroke="#64748b" stroke-width="1"/>
  <line x1="74" y1="49" x2="78" y2="49" stroke="#64748b" stroke-width="1"/>
</svg>